<svg height="480pt" viewBox="0 -76 480 480" width="480pt" xmlns="http://www.w3.org/2000/svg"><path d="m425.601562 264h-371.203124l-46.398438-56 46.398438-56h371.203124l46.398438 56zm0 0" fill="#e97424"/><path d="m240 0c-83.949219 0-152 68.050781-152 152h304c0-83.949219-68.050781-152-152-152zm0 0" fill="#32b1cc"/><g fill="#fcf05a"><path d="m176 208c0 13.253906-10.746094 24-24 24s-24-10.746094-24-24 10.746094-24 24-24 24 10.746094 24 24zm0 0"/><path d="m352 208c0 13.253906-10.746094 24-24 24s-24-10.746094-24-24 10.746094-24 24-24 24 10.746094 24 24zm0 0"/><path d="m264 208c0 13.253906-10.746094 24-24 24s-24-10.746094-24-24 10.746094-24 24-24 24 10.746094 24 24zm0 0"/><path d="m96 216h-88c-4.417969 0-8-3.582031-8-8s3.582031-8 8-8h88c4.417969 0 8 3.582031 8 8s-3.582031 8-8 8zm0 0"/><path d="m472 216h-88c-4.417969 0-8-3.582031-8-8s3.582031-8 8-8h88c4.417969 0 8 3.582031 8 8s-3.582031 8-8 8zm0 0"/></g><path d="m88 264h304v32h-304zm0 0" fill="#195c85"/><path d="m352 128c-3.535156 0-6.648438-2.320312-7.664062-5.703125-22.121094-73.722656-94.097657-82.023437-97.136719-82.296875-4.394531-.441406-7.601563-4.363281-7.160157-8.761719.441407-4.394531 4.363282-7.601562 8.761719-7.160156.847657.089844 85.597657 9.507813 110.863281 93.664063 1.269532 4.234374-1.136718 8.695312-5.367187 9.960937-.75.207031-1.519531.308594-2.296875.296875zm0 0" fill="#195c85"/><path d="m104 296h64c0 17.671875-14.328125 32-32 32s-32-14.328125-32-32zm0 0" fill="#d9176c"/><path d="m208 296h64c0 17.671875-14.328125 32-32 32s-32-14.328125-32-32zm0 0" fill="#d9176c"/><path d="m312 296h64c0 17.671875-14.328125 32-32 32s-32-14.328125-32-32zm0 0" fill="#d9176c"/><path d="m136 128h-8c-4.417969 0-8-3.582031-8-8s3.582031-8 8-8h8c4.417969 0 8 3.582031 8 8s-3.582031 8-8 8zm0 0" fill="#195c85"/><path d="m176 128h-8c-4.417969 0-8-3.582031-8-8s3.582031-8 8-8h8c4.417969 0 8 3.582031 8 8s-3.582031 8-8 8zm0 0" fill="#195c85"/></svg>